<svg xmlns="http://www.w3.org/2000/svg" xmlns:xlink="http://www.w3.org/1999/xlink" width="216.34" height="223.73" viewBox="0 0 216.34 223.73">
  <defs>
    <style>
      .cls-1 {
        fill: none;
      }

      .cls-2 {
        clip-path: url(#clip-path);
      }

      .cls-3 {
        fill: #254974;
      }

      .cls-4 {
        fill: #6e7071;
      }

      .cls-5 {
        fill: #2563a4;
      }

      .cls-5, .cls-6 {
        fill-rule: evenodd;
      }

      .cls-6 {
        fill: #33ada7;
      }
    </style>
    <clipPath id="clip-path">
      <rect class="cls-1" width="216.34" height="223.73"/>
    </clipPath>
  </defs>
  <title>Asset 2</title>
  <g id="Layer_2" data-name="Layer 2">
    <g id="Slide_1" data-name="Slide 1">
      <g class="cls-2">
        <path class="cls-3" d="M0,158.85H11.05q5.19,0,5.19,4.71v9.58q0,4.71-5.19,4.71H5.47V188.9H0Zm10.76,13.52v-8a1.46,1.46,0,0,0-.28-1A1.6,1.6,0,0,0,9.43,163h-4v10.62h4a1.6,1.6,0,0,0,1.05-.26,1.44,1.44,0,0,0,.28-1"/>
        <path class="cls-3" d="M31,177.18V188.9H25.47V158.85H36.52q5.2,0,5.2,4.72v8.9c0,2.6-1.16,4.13-3.48,4.57l5,11.86H37.33l-4.57-11.72ZM31,163v10.1h4a1.53,1.53,0,0,0,1-.27,1.36,1.36,0,0,0,.29-1v-7.52a1.41,1.41,0,0,0-.29-1,1.59,1.59,0,0,0-1-.26Z"/>
        <path class="cls-3" d="M64,188.9l-1.14-6.24H56.29l-1,6.24H49.76l6.05-30.05h7.38l6.34,30.05Zm-7-10.38h5.1l-2.62-14.38Z"/>
        <path class="cls-3" d="M93.62,168.09H88.1v-4a1.41,1.41,0,0,0-.29-1,1.6,1.6,0,0,0-1-.26H84.53a1.6,1.6,0,0,0-1,.26,1.41,1.41,0,0,0-.29,1v19.52a1.41,1.41,0,0,0,.29,1,1.6,1.6,0,0,0,1,.26h2.23a1.6,1.6,0,0,0,1-.26,1.41,1.41,0,0,0,.29-1V177H85.72v-3.85h7.9v11.09c0,3.14-1.73,4.72-5.19,4.72H82.86c-3.46,0-5.19-1.58-5.19-4.72V163.57q0-4.73,5.19-4.72h5.57q5.19,0,5.19,4.72Z"/>
        <polygon class="cls-3" points="108.29 188.9 103.43 188.9 103.43 158.85 109.43 158.85 114.48 176.71 119.53 158.85 125.53 158.85 125.53 188.9 120.72 188.9 120.72 167.81 116.72 182.37 112.29 182.37 108.29 167.85 108.29 188.9"/>
        <path class="cls-3" d="M148.2,188.9l-1.15-6.24h-6.57l-1,6.24H134l6-30.05h7.38l6.34,30.05Zm-7-10.38h5.09l-2.62-14.38Z"/>
        <polygon class="cls-3" points="176.06 158.85 176.06 163.04 170.77 163.04 170.77 188.9 165.29 188.9 165.29 163.04 160.06 163.04 160.06 158.85 176.06 158.85"/>
        <rect class="cls-3" x="184.58" y="158.85" width="5.48" height="30.05"/>
        <path class="cls-3" d="M216.34,168.8h-5.52v-4.67a1.38,1.38,0,0,0-.29-1,1.6,1.6,0,0,0-1.05-.26h-2.23a1.6,1.6,0,0,0-1.05.26,1.38,1.38,0,0,0-.29,1v19.53a1.36,1.36,0,0,0,.29,1,1.54,1.54,0,0,0,1.05.27h2.23a1.54,1.54,0,0,0,1.05-.27,1.36,1.36,0,0,0,.29-1v-4.57h5.52v5.14q0,4.72-5.19,4.72h-5.57q-5.19,0-5.19-4.72V163.56q0-4.71,5.19-4.71h5.57q5.19,0,5.19,4.71Z"/>
        <rect class="cls-4" x="40.67" y="209.17" width="2.84" height="14.4"/>
        <polygon class="cls-4" points="49.97 209.17 52.5 209.17 59.41 218.96 59.41 209.17 62.19 209.17 62.19 223.57 59.65 223.57 52.75 213.78 52.75 223.57 49.97 223.57 49.97 209.17"/>
        <path class="cls-4" d="M69.22,222.47A4.76,4.76,0,0,1,68,218.94h2.79a2.41,2.41,0,0,0,.55,1.68,1.92,1.92,0,0,0,1.51.6h2.28a2.53,2.53,0,0,0,1.47-.38,1.16,1.16,0,0,0,.57-1v-.69c0-.68-.49-1.1-1.48-1.26l-3.79-.64a5.34,5.34,0,0,1-2.8-1.18,2.88,2.88,0,0,1-1-2.23v-1.15a3.36,3.36,0,0,1,.58-1.93,3.82,3.82,0,0,1,1.67-1.28,6.45,6.45,0,0,1,2.5-.45h2.32a4.91,4.91,0,0,1,2.37.55,4,4,0,0,1,1.59,1.55,4.61,4.61,0,0,1,.57,2.32h-2.8a2,2,0,0,0-.47-1.39,1.62,1.62,0,0,0-1.26-.52H72.84a2.33,2.33,0,0,0-1.39.37,1.13,1.13,0,0,0-.52,1v.56c0,.68.47,1.11,1.41,1.27l3.77.66A6.06,6.06,0,0,1,79,216.52a2.7,2.7,0,0,1,1,2.15V220a3.24,3.24,0,0,1-.61,1.93,3.91,3.91,0,0,1-1.7,1.31,6.42,6.42,0,0,1-2.53.46H72.76a4.82,4.82,0,0,1-3.54-1.26"/>
        <polygon class="cls-4" points="88.84 211.64 84.27 211.64 84.27 209.17 96.25 209.17 96.25 211.64 91.68 211.64 91.68 223.57 88.84 223.57 88.84 211.64"/>
        <rect class="cls-4" x="101.68" y="209.17" width="2.84" height="14.4"/>
        <polygon class="cls-4" points="114.51 211.64 109.94 211.64 109.94 209.17 121.92 209.17 121.92 211.64 117.35 211.64 117.35 223.57 114.51 223.57 114.51 211.64"/>
        <path class="cls-4" d="M129.48,223.09a4.57,4.57,0,0,1-1.79-1.83,5.62,5.62,0,0,1-.63-2.71v-9.38h2.83v9.3a3,3,0,0,0,.63,2,2,2,0,0,0,1.63.76h2.19a2,2,0,0,0,1.66-.76,3,3,0,0,0,.64-2v-9.3h2.84v9.38a5.62,5.62,0,0,1-.64,2.71,4.49,4.49,0,0,1-1.81,1.83,5.6,5.6,0,0,1-2.69.64h-2.19a5.49,5.49,0,0,1-2.67-.64"/>
        <polygon class="cls-4" points="149.19 211.64 144.62 211.64 144.62 209.17 156.59 209.17 156.59 211.64 152.02 211.64 152.02 223.57 149.19 223.57 149.19 211.64"/>
        <path class="cls-4" d="M162.37,223a1.84,1.84,0,0,1-.55-1.4V209.17h11v2.47h-8.15V215h7.53v2.47h-7.53v3.66h8.15v2.47h-9a2,2,0,0,1-1.44-.54"/>
        <rect class="cls-4" x="1.71" y="214.89" width="34.06" height="1.87"/>
        <rect class="cls-4" x="178.1" y="214.89" width="34.06" height="1.87"/>
        <path class="cls-5" d="M94.19,60.06c-19.68-.17-58.89-.45-58.88-.49V11.12L94.19,0Z"/>
        <path class="cls-6" d="M35.14,79.67l59.05,4.69V117.2h-.08L35.14,106Z"/>
        <path class="cls-3" d="M186.18,9.22,108.77,0V117.19l28.83-3.46V86.15l31.94-1.35c13-.74,16.64-12.24,16.64-25ZM163.29,58.56H137.6V31.05l25.69,1.48Z"/>
      </g>
    </g>
  </g>
<script language="javascript" type="text/javascript">window.addEventListener("load", window.parent.PS.imgUpdateCount);window.addEventListener("error", window.parent.PS.imgUpdateError);</script></svg>
